<svg version="1.1" id="Layer_1" xmlns="http://www.w3.org/2000/svg" xmlns:xlink="http://www.w3.org/1999/xlink" x="0px" y="0px"
	 width="100%" viewBox="0 0 4000 2250" enable-background="new 0 0 4000 2250" xml:space="preserve">
<path fill="#1F2C34" opacity="1.000000" stroke="none" 
	d="
M3790.000000,2252.000000 
	C2526.666992,2252.000000 1264.334106,2252.000000 2.000847,2252.000000 
	C2.000565,1502.000610 2.000565,752.001221 2.000282,2.001350 
	C1335.332397,2.000900 2668.664795,2.000900 4001.997803,2.000450 
	C4001.998535,751.998779 4001.998535,1501.997559 4001.999268,2251.998047 
	C3931.666748,2252.000000 3861.333252,2252.000000 3790.000000,2252.000000 
M1598.090698,962.392944 
	C1489.447754,962.503723 1380.804688,962.614014 1272.161743,962.751221 
	C1271.912109,962.751526 1271.660889,963.144531 1271.414551,963.358765 
	C1271.164551,963.576172 1270.919312,963.799133 1270.954590,963.767700 
	C1270.954590,1093.579468 1270.954590,1223.084961 1270.954590,1352.501831 
	C1285.521240,1354.492676 1653.916870,1353.827148 1661.418335,1351.708862 
	C1661.418335,1347.923950 1661.418213,1343.959595 1661.418213,1339.995361 
	C1661.418213,1238.341309 1661.414795,1136.687134 1661.432861,1035.033081 
	C1661.433594,1031.376709 1661.646851,1027.720215 1663.665405,1023.970642 
	C1682.850708,1023.970642 1702.036011,1023.970642 1720.938110,1023.970642 
	C1723.226440,1013.278992 1722.981445,909.445862 1720.866577,901.789856 
	C1680.853760,901.789856 1640.798950,901.789856 1599.953735,901.789856 
	C1599.953735,922.425171 1599.953735,942.329285 1598.090698,962.392944 
M2238.327393,1225.900024 
	C2242.358887,1231.109375 2246.390381,1236.318726 2250.608154,1241.768677 
	C2256.722656,1237.182617 2262.172363,1233.095093 2267.786377,1228.884277 
	C2262.542480,1221.636963 2257.933594,1215.267578 2253.211426,1208.741577 
	C2269.103271,1193.025757 2275.347656,1174.425171 2273.963379,1153.011353 
	C2272.210938,1125.903198 2253.568848,1102.634766 2228.313232,1096.229248 
	C2187.032715,1085.759644 2149.726318,1113.866333 2148.306396,1156.506592 
	C2147.160156,1190.932129 2168.493652,1218.201416 2201.565186,1222.992432 
	C2210.531250,1224.291382 2220.092041,1222.776367 2229.185303,1221.330444 
	C2233.360596,1220.666626 2235.395752,1221.660156 2238.327393,1225.900024 
M1815.602173,1198.215820 
	C1809.986328,1193.210938 1804.370361,1188.206055 1798.445923,1182.926025 
	C1793.677979,1188.338623 1788.927979,1193.730835 1784.161987,1199.141235 
	C1795.236450,1214.749023 1809.841187,1222.301514 1827.719604,1223.711792 
	C1840.216553,1224.697510 1852.189087,1222.882202 1863.407959,1216.602173 
	C1883.185303,1205.531128 1890.338989,1169.987305 1862.488647,1156.108276 
	C1855.417114,1152.583984 1847.605347,1150.518921 1840.078857,1147.943115 
	C1834.433716,1146.010986 1828.522339,1144.755127 1823.055298,1142.431152 
	C1817.123169,1139.909424 1813.475830,1135.274292 1814.050903,1128.316284 
	C1814.528076,1122.543213 1818.701050,1118.001953 1825.590332,1116.082397 
	C1837.416016,1112.787354 1848.026367,1115.253052 1857.160156,1123.450562 
	C1859.567139,1125.610840 1861.524658,1128.271851 1862.906494,1129.824341 
	C1868.808228,1124.831543 1874.020996,1120.421509 1878.954224,1116.248047 
	C1866.382568,1091.067993 1820.333252,1086.079956 1799.604858,1108.093628 
	C1784.709473,1123.912354 1787.807861,1149.485596 1806.851318,1160.600464 
	C1814.436890,1165.027710 1823.539307,1166.869019 1831.973145,1169.825317 
	C1837.289673,1171.688965 1842.832397,1173.028198 1847.936523,1175.345093 
	C1853.725830,1177.972900 1857.593384,1182.593140 1857.429932,1189.380493 
	C1857.291626,1195.123291 1852.504761,1199.755737 1845.007446,1202.103516 
	C1835.198364,1205.175049 1825.933472,1203.341431 1815.602173,1198.215820 
M1984.236938,1163.006836 
	C1984.236938,1151.426514 1984.236938,1139.846069 1984.236938,1127.573853 
	C1978.729126,1127.573853 1974.128052,1127.533325 1969.528076,1127.591187 
	C1967.266724,1127.619507 1965.007446,1127.829956 1962.349365,1127.980469 
	C1962.079224,1131.424316 1961.840088,1134.471313 1961.581787,1137.764648 
	C1960.072510,1137.133179 1959.386963,1137.019165 1958.934692,1136.632202 
	C1936.508179,1117.446045 1905.814209,1123.921265 1893.327759,1150.666382 
	C1886.669556,1164.927368 1886.296875,1179.669678 1891.696167,1194.395142 
	C1901.730469,1221.762207 1931.237061,1233.769531 1956.272583,1214.563599 
	C1957.503906,1213.619019 1958.906250,1212.897583 1960.900024,1211.653320 
	C1961.575684,1215.447144 1962.122070,1218.514771 1962.653320,1221.497559 
	C1970.021851,1221.497559 1976.853882,1221.497559 1984.236816,1221.497559 
	C1984.236816,1202.289673 1984.236816,1183.647217 1984.236938,1163.006836 
M2430.600098,1125.630859 
	C2412.851074,1125.047363 2399.503174,1132.781128 2391.642578,1148.362549 
	C2381.975098,1167.525146 2382.397461,1187.006958 2394.325684,1205.232056 
	C2407.673828,1225.626465 2431.935303,1229.764160 2451.766602,1215.676147 
	C2453.691162,1214.308594 2455.686768,1213.040771 2458.157959,1211.386108 
	C2458.628662,1215.462769 2458.965332,1218.378784 2459.319092,1221.442627 
	C2466.762939,1221.442627 2473.889160,1221.442627 2481.076172,1221.442627 
	C2481.076172,1190.020630 2481.076172,1159.234131 2481.076172,1128.009277 
	C2473.746094,1128.009277 2466.887207,1128.009277 2459.688477,1128.009277 
	C2459.216797,1131.200562 2458.793457,1134.063354 2458.115967,1138.646484 
	C2450.452637,1130.794922 2442.353760,1125.905273 2430.600098,1125.630859 
M2030.717407,1230.766846 
	C2027.343750,1238.627075 2023.969971,1246.487305 2020.342163,1254.939575 
	C2028.632935,1254.939575 2035.781494,1254.939575 2042.673706,1254.939575 
	C2060.214355,1212.422363 2077.506348,1170.507935 2095.036133,1128.017334 
	C2085.679688,1128.017334 2077.776367,1128.017334 2069.618408,1128.017334 
	C2061.563721,1150.161255 2053.620605,1171.998169 2044.930054,1195.889526 
	C2034.644653,1171.673096 2025.317017,1149.711548 2016.178955,1128.196533 
	C2007.387573,1128.196533 1999.556763,1128.196533 1990.978271,1128.196533 
	C1992.590576,1131.993408 1993.813232,1135.003418 1995.136597,1137.968506 
	C2006.937866,1164.409546 2018.707886,1190.864746 2030.622437,1217.254761 
	C2032.450439,1221.303589 2034.310059,1225.091187 2030.717407,1230.766846 
M2643.956299,1155.411255 
	C2653.074219,1175.712769 2662.003906,1196.102295 2671.431641,1216.259033 
	C2674.076172,1221.913208 2674.184814,1226.651489 2671.377197,1232.194214 
	C2667.705811,1239.442383 2664.812744,1247.084839 2661.324951,1255.158936 
	C2669.649170,1255.158936 2676.547852,1255.158936 2683.586914,1255.158936 
	C2701.095459,1212.774780 2718.489502,1170.667480 2736.137207,1127.946289 
	C2726.868652,1127.946289 2718.976074,1127.946289 2710.689941,1127.946289 
	C2702.671875,1149.975220 2694.724609,1171.809570 2685.958740,1195.892212 
	C2675.609131,1171.515991 2666.315918,1149.627075 2657.169678,1128.084961 
	C2648.500732,1128.084961 2640.640137,1128.084961 2631.730713,1128.084961 
	C2635.859375,1137.266724 2639.622314,1145.635010 2643.956299,1155.411255 
M2297.026855,1213.921509 
	C2315.398926,1230.585938 2333.167725,1224.899902 2351.125244,1211.061646 
	C2351.737061,1215.468750 2352.163818,1218.542603 2352.572998,1221.491333 
	C2359.854736,1221.491333 2366.352783,1221.491333 2373.270996,1221.491333 
	C2373.270996,1190.102783 2373.270996,1159.293457 2373.270996,1128.025391 
	C2366.123779,1128.025391 2359.269287,1128.025391 2351.567139,1128.025391 
	C2351.567139,1131.592285 2351.567627,1134.839600 2351.566895,1138.086914 
	C2351.562988,1153.065308 2351.759521,1168.047363 2351.488281,1183.020874 
	C2351.286133,1194.158813 2345.632812,1201.642944 2336.454102,1204.028687 
	C2321.881836,1207.816284 2311.014648,1199.643433 2310.281738,1183.738892 
	C2309.776611,1172.777222 2310.139648,1161.775269 2310.125000,1150.791382 
	C2310.114990,1143.257202 2310.123047,1135.723022 2310.123047,1128.168945 
	C2302.170410,1128.168945 2295.335205,1128.168945 2288.125000,1128.168945 
	C2288.125000,1149.380493 2287.924805,1169.997192 2288.224609,1190.606567 
	C2288.342285,1198.708740 2290.972168,1206.295654 2297.026855,1213.921509 
M2593.975098,1103.509521 
	C2592.368408,1103.769897 2590.761719,1104.030151 2588.229004,1104.440430 
	C2588.229004,1112.090454 2588.229004,1119.575562 2588.229004,1127.211670 
	C2581.708984,1127.496460 2576.154541,1127.739014 2570.591309,1127.981934 
	C2570.591309,1134.788696 2570.591309,1140.954834 2570.591309,1148.011475 
	C2576.625000,1148.011475 2582.135254,1148.011475 2588.527588,1148.011475 
	C2588.527588,1173.004395 2588.527588,1197.112183 2588.527588,1221.593262 
	C2596.306396,1221.593262 2603.142090,1221.593262 2610.939453,1221.593262 
	C2610.939453,1197.033813 2610.939453,1172.937134 2610.939453,1147.814453 
	C2618.262695,1147.814453 2624.666016,1147.814453 2632.185547,1147.814453 
	C2628.806396,1140.232544 2626.016846,1133.973999 2623.373291,1128.042603 
	C2618.936035,1127.638184 2615.365234,1127.312622 2610.666992,1126.884277 
	C2610.666992,1119.129761 2610.666992,1111.685181 2610.666992,1103.501831 
	C2604.901367,1103.501831 2600.298340,1103.501831 2593.975098,1103.509521 
M2498.335693,1188.994751 
	C2498.335693,1199.842041 2498.335693,1210.689209 2498.335693,1221.429443 
	C2506.499756,1221.429443 2513.290527,1221.429443 2520.110352,1221.429443 
	C2520.110352,1178.743530 2520.110352,1136.703003 2520.110352,1094.786987 
	C2512.653564,1094.786987 2505.852295,1094.786987 2498.335693,1094.786987 
	C2498.335693,1125.973633 2498.335693,1156.484985 2498.335693,1188.994751 
M2561.634766,1157.013916 
	C2561.634766,1147.480713 2561.634766,1137.947510 2561.634766,1128.015503 
	C2553.890869,1128.015503 2547.057373,1128.015503 2540.042725,1128.015503 
	C2540.042725,1159.475098 2540.042725,1190.483154 2540.042725,1221.346680 
	C2547.440430,1221.346680 2554.217285,1221.346680 2561.634766,1221.346680 
	C2561.634766,1200.087402 2561.634766,1179.547852 2561.634766,1157.013916 
M2021.387695,1341.934937 
	C2022.835815,1344.548828 2024.256958,1347.178101 2025.738647,1349.772827 
	C2027.705688,1353.217651 2030.329590,1354.361938 2033.846924,1352.081421 
	C2037.491699,1341.432007 2029.433350,1328.697388 2041.212402,1319.227905 
	C2034.675171,1316.704956 2029.364014,1316.305786 2022.746826,1319.676025 
	C2029.894287,1324.694092 2029.243774,1330.702393 2027.719116,1337.389282 
	C2026.341431,1336.712891 2025.528320,1336.588623 2025.264893,1336.140991 
	C2023.079468,1332.426392 2020.994629,1328.652710 2018.881714,1324.895508 
	C2013.975220,1316.169800 2010.252075,1315.089355 2000.815918,1319.654907 
	C2008.372070,1330.238647 2008.072876,1340.918457 1999.578735,1352.920410 
	C2006.371094,1352.874878 2011.585083,1355.163086 2017.458984,1350.873413 
	C2009.400269,1345.121216 2012.043091,1337.799438 2012.317627,1330.836670 
	C2013.071411,1330.521362 2013.825073,1330.206055 2014.578857,1329.890747 
	C2016.608032,1333.472168 2018.637207,1337.053589 2021.387695,1341.934937 
M2589.910645,1343.775391 
	C2590.616455,1335.363647 2586.812744,1326.108643 2596.878906,1318.244873 
	C2589.958496,1318.244873 2585.381592,1318.244873 2580.591064,1318.244873 
	C2581.719482,1322.989502 2582.643555,1326.875122 2583.775879,1331.637207 
	C2577.825684,1331.637207 2573.316406,1331.637207 2567.405762,1331.637207 
	C2568.720947,1326.887939 2569.785156,1323.044800 2570.992432,1318.685669 
	C2566.214355,1316.768311 2561.417725,1316.230591 2555.189209,1319.823120 
	C2562.867432,1323.288940 2561.796387,1329.336182 2561.924561,1335.189087 
	C2562.058350,1341.305420 2562.190186,1347.225830 2554.307617,1352.427734 
	C2561.667236,1352.427734 2566.247070,1352.427734 2570.705322,1352.427734 
	C2569.547119,1347.493408 2568.574951,1343.351074 2567.424561,1338.450195 
	C2573.502197,1338.450195 2577.973877,1338.450195 2583.773926,1338.450195 
	C2582.729004,1343.592773 2581.871582,1347.812134 2580.837891,1352.898804 
	C2585.717529,1352.948486 2590.416016,1354.765137 2597.818359,1349.581543 
	C2594.559570,1347.828125 2592.326172,1346.626465 2589.910645,1343.775391 
M2229.252441,1345.586304 
	C2229.865967,1343.994995 2230.479492,1342.403564 2231.846924,1338.856567 
	C2235.002441,1343.637817 2236.983154,1346.875488 2239.199707,1349.943115 
	C2242.585449,1354.628906 2246.440918,1354.527954 2250.729004,1349.390259 
	C2246.938477,1347.150269 2241.718262,1346.049683 2241.950195,1340.183228 
	C2243.426270,1337.647339 2245.364746,1335.267578 2246.284424,1332.543823 
	C2248.364502,1326.381592 2245.951904,1319.977417 2240.480713,1318.554321 
	C2232.955811,1316.596680 2225.199951,1316.478271 2217.020508,1318.523804 
	C2225.566650,1330.304932 2224.273438,1341.210327 2216.581543,1353.357666 
	C2222.749512,1353.064697 2227.319336,1352.847656 2233.484619,1352.554810 
	C2231.503662,1349.558838 2230.663086,1348.287598 2229.252441,1345.586304 
M2185.048584,1353.383545 
	C2188.707764,1353.343872 2192.415771,1353.666504 2196.014160,1353.178101 
	C2201.242920,1352.468628 2202.636963,1347.896118 2199.338135,1342.193970 
	C2195.343262,1346.705566 2190.543945,1349.901245 2184.795654,1346.389282 
	C2183.245850,1345.442505 2183.541992,1341.474609 2183.018555,1339.022949 
	C2187.394287,1337.757568 2190.354492,1336.901611 2193.314697,1336.045532 
	C2193.329102,1335.359375 2193.343750,1334.673218 2193.358154,1333.987061 
	C2190.191406,1332.923584 2187.024658,1331.860107 2182.618164,1330.380127 
	C2183.385254,1328.113892 2183.462402,1324.893799 2185.003418,1323.863403 
	C2190.994141,1319.858765 2194.637451,1326.415771 2199.783691,1328.763916 
	C2201.162354,1323.677856 2200.391846,1318.771851 2196.425781,1318.036133 
	C2188.183838,1316.507080 2179.608887,1316.822998 2170.438232,1318.092651 
	C2179.347900,1330.087646 2178.262939,1340.957031 2171.379639,1351.601074 
	C2172.290283,1352.307129 2172.785156,1353.020264 2173.320068,1353.051880 
	C2176.636475,1353.247192 2179.961670,1353.289551 2185.048584,1353.383545 
M2410.588867,1353.382080 
	C2412.586426,1353.372314 2414.601074,1353.526733 2416.578613,1353.322632 
	C2423.138916,1352.645508 2424.567383,1350.004639 2422.433105,1342.776245 
	C2414.268311,1347.887573 2414.268311,1347.887573 2405.916504,1346.369873 
	C2405.756592,1344.082153 2405.584473,1341.618164 2405.416260,1339.209961 
	C2409.234131,1337.906494 2412.398682,1336.826050 2415.563232,1335.745483 
	C2415.552490,1335.097656 2415.541748,1334.449829 2415.531006,1333.802002 
	C2412.320557,1332.822998 2409.110107,1331.843994 2405.120117,1330.627441 
	C2405.578857,1328.385986 2405.276367,1325.404663 2406.561768,1324.339111 
	C2412.788574,1319.177734 2416.657715,1326.675659 2421.782959,1328.442383 
	C2422.212891,1318.484131 2421.552979,1317.584595 2413.610596,1317.363037 
	C2408.952881,1317.233032 2404.282715,1317.200317 2399.630371,1317.405518 
	C2397.554199,1317.497192 2395.508789,1318.281738 2393.001221,1318.854126 
	C2400.824463,1328.071411 2400.918213,1341.362915 2392.703369,1352.689087 
	C2398.657227,1352.944702 2403.740967,1353.162964 2410.588867,1353.382080 
M1851.654785,1317.337891 
	C1844.798096,1318.088501 1837.518066,1315.555298 1829.354492,1320.084839 
	C1837.875000,1323.612061 1835.926025,1330.015869 1836.150757,1335.717651 
	C1836.378906,1341.511963 1836.807373,1347.377686 1829.387939,1351.574097 
	C1839.559937,1354.586182 1848.122559,1353.483643 1856.509033,1352.985718 
	C1861.099731,1352.713013 1862.033447,1348.168701 1858.651123,1341.600098 
	C1855.645386,1347.682617 1850.698364,1349.236694 1845.388550,1346.697510 
	C1843.660400,1345.871216 1843.317749,1342.147339 1842.252563,1339.530762 
	C1846.756470,1337.996582 1849.935547,1336.913696 1853.114502,1335.830811 
	C1853.121826,1335.186157 1853.129150,1334.541504 1853.136475,1333.896729 
	C1849.941895,1332.849609 1846.747314,1331.802368 1842.710327,1330.479004 
	C1843.155151,1328.426758 1842.891724,1325.524536 1844.170654,1324.438721 
	C1850.428223,1319.126343 1854.282837,1326.634155 1859.371704,1328.521362 
	C1859.710815,1319.850464 1859.710815,1319.850464 1851.654785,1317.337891 
M2083.983398,1344.498413 
	C2083.768311,1341.634399 2083.553467,1338.770264 2083.318115,1335.637329 
	C2078.551758,1335.157959 2074.426270,1333.466187 2070.218506,1337.550171 
	C2071.496826,1338.653564 2072.310303,1339.930054 2073.336182,1340.132690 
	C2076.336670,1340.725342 2079.008545,1342.064087 2077.451172,1345.206909 
	C2076.571289,1346.982300 2073.374512,1348.356934 2071.106934,1348.547119 
	C2065.775635,1348.994385 2062.019775,1345.537964 2060.592529,1339.879395 
	C2058.900879,1333.172607 2061.444580,1326.037720 2066.535889,1323.209106 
	C2070.998291,1320.730103 2074.528320,1321.762573 2079.213379,1326.750122 
	C2079.792725,1327.367065 2080.862305,1327.523926 2081.728027,1327.904297 
	C2083.932129,1321.436890 2083.087158,1319.356445 2077.683838,1317.440674 
	C2068.631348,1314.231079 2058.782959,1318.316895 2055.122314,1326.800537 
	C2051.008545,1336.333984 2054.343750,1347.813110 2062.506836,1352.215942 
	C2070.932861,1356.760864 2080.280029,1354.107544 2083.983398,1344.498413 
M2138.090820,1354.095093 
	C2141.991211,1353.576416 2146.104492,1353.662842 2149.738281,1352.385742 
	C2154.274902,1350.791382 2156.065186,1346.677490 2155.768311,1341.923462 
	C2155.490479,1337.473633 2153.065186,1334.473755 2148.818115,1333.145630 
	C2146.606445,1332.453735 2144.277344,1332.144653 2142.017578,1331.596313 
	C2138.822510,1330.821045 2134.556885,1330.441040 2135.518066,1325.864136 
	C2136.499023,1321.193848 2140.948730,1321.663330 2144.562012,1322.050781 
	C2146.010742,1322.206055 2147.357422,1323.491943 2148.708496,1324.330688 
	C2150.158447,1325.230835 2151.559326,1326.209961 2153.712402,1327.640015 
	C2154.690186,1322.715820 2155.114502,1318.529175 2150.440430,1317.763550 
	C2145.373291,1316.933350 2139.917725,1317.165894 2134.846191,1318.099854 
	C2131.057617,1318.797852 2129.031738,1322.370972 2128.944824,1326.451416 
	C2128.857910,1330.533813 2130.854736,1333.549683 2134.471924,1335.185669 
	C2136.862793,1336.267090 2139.516357,1336.824219 2142.099121,1337.411133 
	C2145.775146,1338.246460 2149.646973,1338.902710 2149.160645,1343.959351 
	C2148.830322,1347.393555 2144.577393,1349.532349 2139.477783,1348.581543 
	C2137.421631,1348.198242 2135.602295,1346.571777 2133.661621,1345.536255 
	C2132.402832,1344.864746 2131.120117,1344.238647 2129.554199,1343.442871 
	C2129.063721,1351.354004 2129.063721,1351.354004 2138.090820,1354.095093 
M2467.936035,1348.611450 
	C2474.113525,1355.540649 2486.798584,1356.283813 2492.466553,1350.048462 
	C2497.360107,1344.665527 2495.697998,1336.379028 2488.907471,1333.506226 
	C2486.192627,1332.357910 2482.936035,1332.454590 2480.274170,1331.228638 
	C2478.150879,1330.250610 2475.185059,1328.260498 2475.010498,1326.482422 
	C2474.641602,1322.722900 2478.321045,1321.359131 2481.267334,1322.004883 
	C2485.077393,1322.840210 2488.611328,1324.936035 2492.259033,1326.486816 
	C2493.860840,1319.376831 2493.587402,1318.178345 2488.222168,1317.245605 
	C2484.386719,1316.578613 2480.264648,1316.684082 2476.400146,1317.283203 
	C2471.699219,1318.012085 2468.584473,1321.054199 2468.363037,1326.096191 
	C2468.144775,1331.071899 2471.025391,1334.213257 2475.358154,1335.978516 
	C2477.488525,1336.846558 2479.864014,1337.140137 2482.147461,1337.598511 
	C2485.580566,1338.287720 2489.110352,1339.279053 2488.653320,1343.610352 
	C2488.147949,1348.400635 2483.959961,1349.326172 2480.352783,1348.607544 
	C2476.481201,1347.835938 2472.899414,1345.610962 2468.659180,1343.792114 
	C2468.342529,1345.056152 2468.048340,1346.229736 2467.936035,1348.611450 
M2659.274170,1339.813477 
	C2660.894287,1353.189087 2675.289551,1357.202026 2684.267334,1352.046631 
	C2692.413818,1347.368774 2695.494629,1334.723633 2690.662598,1325.500366 
	C2687.349365,1319.175903 2681.377686,1315.916992 2674.237549,1316.536621 
	C2667.078125,1317.157959 2661.746826,1321.319458 2659.925293,1328.403320 
	C2659.115234,1331.552734 2659.322021,1334.963501 2659.274170,1339.813477 
M1903.600830,1320.294189 
	C1898.066284,1314.750366 1891.490967,1315.927856 1885.065430,1317.796753 
	C1881.284058,1318.896851 1879.039307,1321.963135 1878.774414,1326.006714 
	C1878.478027,1330.528931 1880.781616,1333.746582 1884.800171,1335.423096 
	C1887.530029,1336.561890 1890.536499,1337.073608 1893.451050,1337.723999 
	C1896.644043,1338.436646 1899.411743,1339.809937 1899.070801,1343.495361 
	C1898.685913,1347.655151 1895.161987,1349.218994 1891.807739,1348.597290 
	C1887.619873,1347.821045 1883.678467,1345.715942 1879.159058,1344.006104 
	C1877.628906,1347.759155 1877.920776,1351.088501 1882.204468,1352.694946 
	C1887.975342,1354.858765 1893.941162,1355.231445 1899.675049,1352.370850 
	C1904.012207,1350.207031 1905.934692,1346.440063 1905.591064,1341.720947 
	C1905.269165,1337.299927 1902.766602,1334.294067 1898.473022,1333.077393 
	C1895.599854,1332.263062 1892.468018,1332.161621 1889.768921,1331.002686 
	C1887.910889,1330.204834 1886.595947,1328.142212 1885.038330,1326.644775 
	C1886.855591,1325.061401 1888.428589,1322.898438 1890.538452,1322.008911 
	C1895.764893,1319.805786 1898.470947,1325.024902 1903.071045,1327.898071 
	C1903.471191,1325.104858 1903.723999,1323.339722 1903.600830,1320.294189 
M2280.845215,1339.503052 
	C2278.210693,1332.618408 2274.391357,1325.964722 2277.755127,1317.638672 
	C2271.861084,1318.025635 2266.556885,1315.098755 2263.168945,1318.992065 
	C2266.396729,1324.264038 2269.311523,1328.387085 2271.540771,1332.852295 
	C2273.613281,1337.003296 2274.839844,1341.568115 2276.659180,1345.857422 
	C2277.888428,1348.755859 2277.968750,1352.972778 2282.389893,1353.081299 
	C2287.422119,1353.204834 2287.450684,1348.615234 2288.762451,1345.388184 
	C2289.639404,1343.231567 2290.222656,1340.955933 2291.092773,1338.796143 
	C2293.835449,1331.988159 2294.388428,1323.985840 2301.521240,1318.436279 
	C2296.983154,1318.436279 2292.445068,1318.436279 2287.238281,1318.436279 
	C2287.650391,1320.091675 2287.963135,1321.283691 2288.243408,1322.483276 
	C2289.602051,1328.303955 2286.555664,1336.827637 2280.845215,1339.503052 
M1946.692749,1326.539185 
	C1948.103394,1326.989258 1950.338135,1328.231689 1950.790894,1327.760864 
	C1953.756226,1324.676758 1952.493042,1321.289062 1951.402832,1318.060059 
	C1940.943726,1318.060059 1931.149902,1318.060059 1921.024658,1318.060059 
	C1920.690552,1322.185913 1919.099609,1325.743774 1923.102173,1328.719116 
	C1925.678711,1326.820923 1928.068481,1325.060303 1931.913574,1322.227417 
	C1933.730713,1333.588867 1935.944458,1343.130493 1927.014648,1352.065186 
	C1933.996338,1353.358154 1939.485474,1355.092896 1946.632568,1349.719849 
	C1943.930542,1347.983887 1940.537720,1346.911011 1940.408691,1345.532593 
	C1939.793945,1338.965088 1939.484619,1332.245239 1940.263062,1325.722412 
	C1940.666016,1322.348145 1943.833618,1322.500854 1946.692749,1326.539185 
M2610.436523,1327.662842 
	C2610.273926,1332.255981 2609.322021,1336.994263 2610.132812,1341.408569 
	C2611.365479,1348.119507 2615.915527,1352.563477 2622.817627,1353.872437 
	C2629.137939,1355.071045 2634.736816,1353.390503 2638.990234,1348.406250 
	C2645.694336,1340.550415 2644.200195,1325.382812 2636.266357,1319.562622 
	C2627.952148,1313.463379 2617.989746,1316.111450 2610.436523,1327.662842 
M1815.506104,1322.576782 
	C1814.358398,1320.881348 1813.274536,1317.770996 1812.052856,1317.715820 
	C1802.878540,1317.302002 1793.677002,1317.490479 1784.387329,1317.490479 
	C1783.592285,1321.947510 1782.433594,1325.395386 1785.838623,1328.829590 
	C1787.123291,1328.033569 1788.594849,1327.631226 1789.110962,1326.699707 
	C1790.314209,1324.527954 1791.547852,1322.173462 1794.215454,1323.886230 
	C1795.478394,1324.696899 1796.218872,1327.199951 1796.224854,1328.939575 
	C1796.251831,1336.786987 1798.457764,1345.149780 1789.945435,1351.944580 
	C1797.139038,1353.451416 1802.563477,1355.035889 1807.880981,1350.918213 
	C1801.526001,1343.075317 1800.700928,1331.628540 1805.984619,1323.119873 
	C1807.397339,1324.436279 1808.628418,1325.755371 1810.030518,1326.856934 
	C1813.858643,1329.864502 1815.267090,1328.015137 1815.506104,1322.576782 
M2518.518066,1328.531372 
	C2520.915771,1326.437988 2523.021484,1323.773071 2525.771240,1322.369141 
	C2531.640869,1319.372314 2534.478516,1326.246460 2539.127441,1327.885132 
	C2540.502686,1319.853271 2539.931641,1318.690796 2534.300537,1317.127808 
	C2519.555176,1313.034790 2508.281982,1324.179077 2511.201416,1339.962158 
	C2513.345947,1351.554199 2525.987061,1358.015747 2536.481689,1352.822144 
	C2540.855225,1350.657837 2541.617920,1347.552246 2538.942139,1343.195679 
	C2537.536865,1343.848267 2536.310547,1344.008301 2535.915527,1344.666992 
	C2533.124512,1349.319824 2528.958984,1349.376343 2524.603027,1347.967407 
	C2519.946289,1346.461426 2517.975830,1342.624146 2517.638428,1338.033081 
	C2517.446533,1335.423218 2517.885498,1332.766846 2518.518066,1328.531372 
M2349.184814,1343.769409 
	C2355.349609,1353.425049 2363.568604,1356.724121 2372.637207,1353.182739 
	C2377.428955,1351.311646 2377.964844,1349.327637 2375.220947,1343.618652 
	C2367.543701,1349.413940 2362.309570,1350.111938 2357.957031,1345.920898 
	C2353.449463,1341.580444 2352.824951,1330.231445 2357.279541,1325.579346 
	C2358.962158,1323.822021 2361.706543,1322.898682 2364.129639,1322.069946 
	C2369.636719,1320.186401 2371.516846,1326.346436 2375.492432,1328.099609 
	C2377.842041,1321.173218 2377.343994,1319.461426 2372.765137,1317.589722 
	C2361.539307,1313.000854 2349.642334,1319.557983 2348.026611,1331.558105 
	C2347.552246,1335.082031 2348.396729,1338.783691 2349.184814,1343.769409 
M2729.072266,1345.947754 
	C2726.142090,1346.349121 2723.211670,1346.750366 2719.449463,1347.265503 
	C2719.889160,1336.704834 2715.034180,1326.798584 2726.537842,1319.506836 
	C2719.053711,1316.483398 2712.912109,1316.374146 2706.005371,1319.361084 
	C2715.343750,1326.125000 2715.897217,1342.307617 2705.854736,1352.189087 
	C2714.730225,1354.271973 2722.943604,1353.666138 2730.958252,1352.715820 
	C2732.697998,1352.509399 2735.162354,1348.175903 2735.152832,1345.751587 
	C2735.136719,1341.696411 2732.494629,1341.933960 2729.072266,1345.947754 
M2561.471680,1097.826660 
	C2560.480713,1096.678955 2559.538086,1094.592163 2558.490723,1094.538208 
	C2552.375244,1094.222778 2546.234863,1094.383545 2540.138184,1094.383545 
	C2540.138184,1102.363892 2540.138184,1109.091675 2540.138184,1115.794434 
	C2547.490723,1115.794434 2554.010986,1115.794434 2561.565918,1115.794434 
	C2561.565918,1110.052002 2561.565918,1104.824097 2561.471680,1097.826660 
M1978.450439,1317.340088 
	C1974.905518,1318.036011 1970.545654,1315.671265 1966.924805,1320.891235 
	C1975.406128,1323.472168 1972.766846,1330.152344 1973.336060,1335.853638 
	C1973.944580,1341.946899 1972.572510,1347.203369 1967.058838,1351.123535 
	C1975.382202,1354.097778 1977.462646,1354.080933 1984.447876,1351.343140 
	C1977.024414,1341.721558 1977.489258,1326.593384 1985.300659,1319.173950 
	C1983.236328,1318.477783 1981.568115,1317.915161 1978.450439,1317.340088 
M2321.980225,1317.350830 
	C2320.121826,1317.994629 2318.263672,1318.638428 2315.863525,1319.469971 
	C2324.271973,1327.504272 2324.293213,1341.609253 2316.826904,1351.197388 
	C2324.292480,1354.427612 2327.795654,1354.274414 2333.048340,1350.666138 
	C2325.406738,1340.027466 2326.621826,1329.464478 2334.250977,1317.942139 
	C2329.835205,1317.696045 2326.675537,1317.519897 2321.980225,1317.350830 
z"/>
<path fill="#FDFDFD" opacity="1.000000" stroke="none" 
	d="
M1661.760986,1024.063843 
	C1661.646851,1027.720215 1661.433594,1031.376709 1661.432861,1035.033081 
	C1661.414795,1136.687134 1661.418213,1238.341309 1661.418213,1339.995361 
	C1661.418213,1343.959595 1661.418335,1347.923950 1661.418335,1351.708862 
	C1653.916870,1353.827148 1285.521240,1354.492676 1270.954590,1352.501831 
	C1270.954590,1223.084961 1270.954590,1093.579468 1270.954590,963.767700 
	C1270.919312,963.799133 1271.164551,963.576172 1271.414551,963.358765 
	C1271.660889,963.144531 1271.912109,962.751526 1272.161743,962.751221 
	C1380.804688,962.614014 1489.447754,962.503723 1599.036865,962.224487 
	C1599.983154,962.055969 1599.805542,962.027588 1599.811768,962.963806 
	C1599.925049,983.694031 1600.032227,1003.488037 1600.144409,1024.203857 
	C1621.547485,1024.203857 1641.764648,1024.203857 1661.962158,1024.113037 
	C1661.942261,1024.022095 1661.760986,1024.063843 1661.760986,1024.063843 
M1473.974976,1211.038208 
	C1496.286377,1232.035889 1522.684692,1234.949829 1550.874512,1227.737915 
	C1557.128418,1235.967163 1562.901611,1243.563965 1568.936890,1251.505615 
	C1576.605713,1245.841553 1583.527344,1240.729248 1591.079834,1235.151001 
	C1585.507812,1227.527466 1580.282715,1220.378418 1574.945312,1213.075684 
	C1594.705688,1192.675537 1601.050049,1168.875977 1596.207642,1141.820923 
	C1590.658081,1110.813965 1565.763672,1087.785034 1534.017090,1084.339478 
	C1501.009888,1080.757324 1469.909302,1097.641968 1458.847046,1127.074097 
	C1447.602417,1156.990845 1450.866699,1185.337891 1473.974976,1211.038208 
M1430.466064,1213.280762 
	C1447.878296,1188.271362 1440.963135,1162.315430 1413.313110,1150.069336 
	C1406.977173,1147.263062 1400.065308,1145.756226 1393.416748,1143.657349 
	C1386.770386,1141.558960 1379.947754,1139.890137 1373.526855,1137.245483 
	C1367.992188,1134.965698 1364.084106,1130.503052 1364.662476,1124.057129 
	C1365.269165,1117.295044 1369.843750,1113.560913 1376.145508,1111.773682 
	C1389.025146,1108.120850 1400.504395,1110.994141 1410.710571,1119.367920 
	C1413.501343,1121.657593 1416.007935,1124.293335 1419.097290,1127.195312 
	C1425.138794,1120.606934 1430.897705,1114.326782 1436.932861,1107.745361 
	C1432.900757,1101.080322 1427.370483,1095.281738 1420.057129,1091.729492 
	C1398.715820,1081.363770 1376.990234,1080.435913 1355.770142,1091.659424 
	C1341.085693,1099.426025 1333.155884,1111.944458 1333.938232,1129.120728 
	C1334.700073,1145.845581 1343.276855,1157.419434 1358.293823,1163.834473 
	C1366.490112,1167.335693 1375.439575,1169.033325 1383.923218,1171.915649 
	C1390.169800,1174.037720 1396.830811,1175.832520 1402.211792,1179.417236 
	C1412.394775,1186.201050 1410.685547,1197.955322 1399.408203,1202.835327 
	C1397.897339,1203.489136 1396.266968,1203.949951 1394.645630,1204.252075 
	C1379.904785,1206.999023 1366.898682,1203.391235 1355.889526,1193.202515 
	C1352.267090,1189.850098 1349.085693,1186.021118 1345.218872,1181.893677 
	C1338.884766,1189.188232 1332.884644,1196.098022 1327.223633,1202.617432 
	C1327.615479,1203.870117 1327.650269,1204.230591 1327.826416,1204.497803 
	C1328.373413,1205.326538 1328.928589,1206.157471 1329.560303,1206.921387 
	C1345.628174,1226.349854 1366.949097,1232.618164 1391.160278,1231.075073 
	C1405.854492,1230.138550 1419.279663,1225.773193 1430.466064,1213.280762 
z"/>
<path fill="#FD7301" opacity="1.000000" stroke="none" 
	d="
M1599.968506,962.144653 
	C1599.953735,942.329285 1599.953735,922.425171 1599.953735,901.789856 
	C1640.798950,901.789856 1680.853760,901.789856 1720.866577,901.789856 
	C1722.981445,909.445862 1723.226440,1013.278992 1720.938110,1023.970642 
	C1702.036011,1023.970642 1682.850708,1023.970642 1662.713135,1024.017212 
	C1661.760986,1024.063843 1661.942261,1024.022095 1661.788330,1023.175415 
	C1660.866699,1002.550781 1662.295166,982.698303 1660.770020,962.027588 
	C1639.686523,962.027588 1619.746094,962.027588 1599.805542,962.027588 
	C1599.805542,962.027588 1599.983154,962.055969 1599.968506,962.144653 
z"/>
<path fill="#F9F9FA" opacity="1.000000" stroke="none" 
	d="
M2237.879395,1225.238892 
	C2235.395752,1221.660156 2233.360596,1220.666626 2229.185303,1221.330444 
	C2220.092041,1222.776367 2210.531250,1224.291382 2201.565186,1222.992432 
	C2168.493652,1218.201416 2147.160156,1190.932129 2148.306396,1156.506592 
	C2149.726318,1113.866333 2187.032715,1085.759644 2228.313232,1096.229248 
	C2253.568848,1102.634766 2272.210938,1125.903198 2273.963379,1153.011353 
	C2275.347656,1174.425171 2269.103271,1193.025757 2253.211426,1208.741577 
	C2257.933594,1215.267578 2262.542480,1221.636963 2267.786377,1228.884277 
	C2262.172363,1233.095093 2256.722656,1237.182617 2250.608154,1241.768677 
	C2246.390381,1236.318726 2242.358887,1231.109375 2237.879395,1225.238892 
M2172.232666,1159.008789 
	C2172.379883,1169.615112 2175.127197,1179.379150 2181.816895,1187.781372 
	C2190.779053,1199.038086 2205.583008,1203.976929 2218.399414,1199.593872 
	C2213.233154,1192.639038 2208.191406,1185.852051 2202.732666,1178.503296 
	C2209.275635,1174.177612 2214.949951,1170.426147 2220.807617,1166.553589 
	C2227.083252,1174.640015 2232.756348,1181.950073 2238.724609,1189.640747 
	C2249.826172,1177.660522 2252.022949,1163.898804 2249.466064,1149.304321 
	C2246.020996,1129.641846 2230.126221,1116.323975 2211.254883,1116.346191 
	C2192.432617,1116.368164 2177.768066,1128.791870 2173.519531,1148.421509 
	C2172.890137,1151.329834 2172.656006,1154.323853 2172.232666,1159.008789 
z"/>
<path fill="#F8F9F9" opacity="1.000000" stroke="none" 
	d="
M1816.264893,1198.638428 
	C1825.933472,1203.341431 1835.198364,1205.175049 1845.007446,1202.103516 
	C1852.504761,1199.755737 1857.291626,1195.123291 1857.429932,1189.380493 
	C1857.593384,1182.593140 1853.725830,1177.972900 1847.936523,1175.345093 
	C1842.832397,1173.028198 1837.289673,1171.688965 1831.973145,1169.825317 
	C1823.539307,1166.869019 1814.436890,1165.027710 1806.851318,1160.600464 
	C1787.807861,1149.485596 1784.709473,1123.912354 1799.604858,1108.093628 
	C1820.333252,1086.079956 1866.382568,1091.067993 1878.954224,1116.248047 
	C1874.020996,1120.421509 1868.808228,1124.831543 1862.906494,1129.824341 
	C1861.524658,1128.271851 1859.567139,1125.610840 1857.160156,1123.450562 
	C1848.026367,1115.253052 1837.416016,1112.787354 1825.590332,1116.082397 
	C1818.701050,1118.001953 1814.528076,1122.543213 1814.050903,1128.316284 
	C1813.475830,1135.274292 1817.123169,1139.909424 1823.055298,1142.431152 
	C1828.522339,1144.755127 1834.433716,1146.010986 1840.078857,1147.943115 
	C1847.605347,1150.518921 1855.417114,1152.583984 1862.488647,1156.108276 
	C1890.338989,1169.987305 1883.185303,1205.531128 1863.407959,1216.602173 
	C1852.189087,1222.882202 1840.216553,1224.697510 1827.719604,1223.711792 
	C1809.841187,1222.301514 1795.236450,1214.749023 1784.161987,1199.141235 
	C1788.927979,1193.730835 1793.677979,1188.338623 1798.445923,1182.926025 
	C1804.370361,1188.206055 1809.986328,1193.210938 1816.264893,1198.638428 
z"/>
<path fill="#F9F9FA" opacity="1.000000" stroke="none" 
	d="
M1984.236816,1164.005737 
	C1984.236816,1183.647217 1984.236816,1202.289673 1984.236816,1221.497559 
	C1976.853882,1221.497559 1970.021851,1221.497559 1962.653320,1221.497559 
	C1962.122070,1218.514771 1961.575684,1215.447144 1960.900024,1211.653320 
	C1958.906250,1212.897583 1957.503906,1213.619019 1956.272583,1214.563599 
	C1931.237061,1233.769531 1901.730469,1221.762207 1891.696167,1194.395142 
	C1886.296875,1179.669678 1886.669556,1164.927368 1893.327759,1150.666382 
	C1905.814209,1123.921265 1936.508179,1117.446045 1958.934692,1136.632202 
	C1959.386963,1137.019165 1960.072510,1137.133179 1961.581787,1137.764648 
	C1961.840088,1134.471313 1962.079224,1131.424316 1962.349365,1127.980469 
	C1965.007446,1127.829956 1967.266724,1127.619507 1969.528076,1127.591187 
	C1974.128052,1127.533325 1978.729126,1127.573853 1984.236938,1127.573853 
	C1984.236938,1139.846069 1984.236938,1151.426514 1984.236816,1164.005737 
M1933.608643,1204.063599 
	C1948.248657,1203.932983 1956.480469,1198.881226 1960.597412,1186.789062 
	C1963.808594,1177.356934 1963.733521,1167.761353 1959.123657,1158.747314 
	C1951.321289,1143.490112 1930.307007,1140.351929 1918.623535,1152.474854 
	C1904.494385,1167.135376 1909.259644,1200.767456 1933.608643,1204.063599 
z"/>
<path fill="#F8F9F9" opacity="1.000000" stroke="none" 
	d="
M2431.413818,1125.662109 
	C2442.353760,1125.905273 2450.452637,1130.794922 2458.115967,1138.646484 
	C2458.793457,1134.063354 2459.216797,1131.200562 2459.688477,1128.009277 
	C2466.887207,1128.009277 2473.746094,1128.009277 2481.076172,1128.009277 
	C2481.076172,1159.234131 2481.076172,1190.020630 2481.076172,1221.442627 
	C2473.889160,1221.442627 2466.762939,1221.442627 2459.319092,1221.442627 
	C2458.965332,1218.378784 2458.628662,1215.462769 2458.157959,1211.386108 
	C2455.686768,1213.040771 2453.691162,1214.308594 2451.766602,1215.676147 
	C2431.935303,1229.764160 2407.673828,1225.626465 2394.325684,1205.232056 
	C2382.397461,1187.006958 2381.975098,1167.525146 2391.642578,1148.362549 
	C2399.503174,1132.781128 2412.851074,1125.047363 2431.413818,1125.662109 
M2408.271240,1181.755859 
	C2408.934082,1183.977295 2409.371826,1186.297974 2410.298340,1188.403320 
	C2414.709961,1198.426636 2422.160156,1204.108154 2433.416260,1204.149902 
	C2444.594238,1204.191406 2452.437012,1198.893799 2456.847412,1188.835083 
	C2461.200195,1178.906982 2461.111328,1168.804688 2456.204102,1159.029907 
	C2451.412598,1149.485962 2443.420898,1144.965942 2432.812744,1145.194702 
	C2422.053223,1145.426758 2414.118164,1150.723511 2410.606201,1160.612549 
	C2408.465332,1166.640625 2408.834473,1173.559937 2408.271240,1181.755859 
z"/>
<path fill="#F8F9F9" opacity="1.000000" stroke="none" 
	d="
M2031.105713,1230.061523 
	C2034.310059,1225.091187 2032.450439,1221.303589 2030.622437,1217.254761 
	C2018.707886,1190.864746 2006.937866,1164.409546 1995.136597,1137.968506 
	C1993.813232,1135.003418 1992.590576,1131.993408 1990.978271,1128.196533 
	C1999.556763,1128.196533 2007.387573,1128.196533 2016.178955,1128.196533 
	C2025.317017,1149.711548 2034.644653,1171.673096 2044.930054,1195.889526 
	C2053.620605,1171.998169 2061.563721,1150.161255 2069.618408,1128.017334 
	C2077.776367,1128.017334 2085.679688,1128.017334 2095.036133,1128.017334 
	C2077.506348,1170.507935 2060.214355,1212.422363 2042.673706,1254.939575 
	C2035.781494,1254.939575 2028.632935,1254.939575 2020.342163,1254.939575 
	C2023.969971,1246.487305 2027.343750,1238.627075 2031.105713,1230.061523 
z"/>
<path fill="#F8F9F9" opacity="1.000000" stroke="none" 
	d="
M2643.670654,1154.707275 
	C2639.622314,1145.635010 2635.859375,1137.266724 2631.730713,1128.084961 
	C2640.640137,1128.084961 2648.500732,1128.084961 2657.169678,1128.084961 
	C2666.315918,1149.627075 2675.609131,1171.515991 2685.958740,1195.892212 
	C2694.724609,1171.809570 2702.671875,1149.975220 2710.689941,1127.946289 
	C2718.976074,1127.946289 2726.868652,1127.946289 2736.137207,1127.946289 
	C2718.489502,1170.667480 2701.095459,1212.774780 2683.586914,1255.158936 
	C2676.547852,1255.158936 2669.649170,1255.158936 2661.324951,1255.158936 
	C2664.812744,1247.084839 2667.705811,1239.442383 2671.377197,1232.194214 
	C2674.184814,1226.651489 2674.076172,1221.913208 2671.431641,1216.259033 
	C2662.003906,1196.102295 2653.074219,1175.712769 2643.670654,1154.707275 
z"/>
<path fill="#F8F9F9" opacity="1.000000" stroke="none" 
	d="
M2296.550781,1213.372192 
	C2290.972168,1206.295654 2288.342285,1198.708740 2288.224609,1190.606567 
	C2287.924805,1169.997192 2288.125000,1149.380493 2288.125000,1128.168945 
	C2295.335205,1128.168945 2302.170410,1128.168945 2310.123047,1128.168945 
	C2310.123047,1135.723022 2310.114990,1143.257202 2310.125000,1150.791382 
	C2310.139648,1161.775269 2309.776611,1172.777222 2310.281738,1183.738892 
	C2311.014648,1199.643433 2321.881836,1207.816284 2336.454102,1204.028687 
	C2345.632812,1201.642944 2351.286133,1194.158813 2351.488281,1183.020874 
	C2351.759521,1168.047363 2351.562988,1153.065308 2351.566895,1138.086914 
	C2351.567627,1134.839600 2351.567139,1131.592285 2351.567139,1128.025391 
	C2359.269287,1128.025391 2366.123779,1128.025391 2373.270996,1128.025391 
	C2373.270996,1159.293457 2373.270996,1190.102783 2373.270996,1221.491333 
	C2366.352783,1221.491333 2359.854736,1221.491333 2352.572998,1221.491333 
	C2352.163818,1218.542603 2351.737061,1215.468750 2351.125244,1211.061646 
	C2333.167725,1224.899902 2315.398926,1230.585938 2296.550781,1213.372192 
z"/>
<path fill="#F8F9F9" opacity="1.000000" stroke="none" 
	d="
M2594.835205,1103.505615 
	C2600.298340,1103.501831 2604.901367,1103.501831 2610.666992,1103.501831 
	C2610.666992,1111.685181 2610.666992,1119.129761 2610.666992,1126.884277 
	C2615.365234,1127.312622 2618.936035,1127.638184 2623.373291,1128.042603 
	C2626.016846,1133.973999 2628.806396,1140.232544 2632.185547,1147.814453 
	C2624.666016,1147.814453 2618.262695,1147.814453 2610.939453,1147.814453 
	C2610.939453,1172.937134 2610.939453,1197.033813 2610.939453,1221.593262 
	C2603.142090,1221.593262 2596.306396,1221.593262 2588.527588,1221.593262 
	C2588.527588,1197.112183 2588.527588,1173.004395 2588.527588,1148.011475 
	C2582.135254,1148.011475 2576.625000,1148.011475 2570.591309,1148.011475 
	C2570.591309,1140.954834 2570.591309,1134.788696 2570.591309,1127.981934 
	C2576.154541,1127.739014 2581.708984,1127.496460 2588.229004,1127.211670 
	C2588.229004,1119.575562 2588.229004,1112.090454 2588.229004,1104.440430 
	C2590.761719,1104.030151 2592.368408,1103.769897 2594.835205,1103.505615 
z"/>
<path fill="#F8F9F9" opacity="1.000000" stroke="none" 
	d="
M2498.335693,1187.995605 
	C2498.335693,1156.484985 2498.335693,1125.973633 2498.335693,1094.786987 
	C2505.852295,1094.786987 2512.653564,1094.786987 2520.110352,1094.786987 
	C2520.110352,1136.703003 2520.110352,1178.743530 2520.110352,1221.429443 
	C2513.290527,1221.429443 2506.499756,1221.429443 2498.335693,1221.429443 
	C2498.335693,1210.689209 2498.335693,1199.842041 2498.335693,1187.995605 
z"/>
<path fill="#F8F9F9" opacity="1.000000" stroke="none" 
	d="
M2561.634766,1158.010986 
	C2561.634766,1179.547852 2561.634766,1200.087402 2561.634766,1221.346680 
	C2554.217285,1221.346680 2547.440430,1221.346680 2540.042725,1221.346680 
	C2540.042725,1190.483154 2540.042725,1159.475098 2540.042725,1128.015503 
	C2547.057373,1128.015503 2553.890869,1128.015503 2561.634766,1128.015503 
	C2561.634766,1137.947510 2561.634766,1147.480713 2561.634766,1158.010986 
z"/>
<path fill="#D56A11" opacity="1.000000" stroke="none" 
	d="
M2021.027100,1341.284912 
	C2018.637207,1337.053589 2016.608032,1333.472168 2014.578857,1329.890747 
	C2013.825073,1330.206055 2013.071411,1330.521362 2012.317627,1330.836670 
	C2012.043091,1337.799438 2009.400269,1345.121216 2017.458984,1350.873413 
	C2011.585083,1355.163086 2006.371094,1352.874878 1999.578735,1352.920410 
	C2008.072876,1340.918457 2008.372070,1330.238647 2000.815918,1319.654907 
	C2010.252075,1315.089355 2013.975220,1316.169800 2018.881714,1324.895508 
	C2020.994629,1328.652710 2023.079468,1332.426392 2025.264893,1336.140991 
	C2025.528320,1336.588623 2026.341431,1336.712891 2027.719116,1337.389282 
	C2029.243774,1330.702393 2029.894287,1324.694092 2022.746826,1319.676025 
	C2029.364014,1316.305786 2034.675171,1316.704956 2041.212402,1319.227905 
	C2029.433350,1328.697388 2037.491699,1341.432007 2033.846924,1352.081421 
	C2030.329590,1354.361938 2027.705688,1353.217651 2025.738647,1349.772827 
	C2024.256958,1347.178101 2022.835815,1344.548828 2021.027100,1341.284912 
z"/>
<path fill="#D56A11" opacity="1.000000" stroke="none" 
	d="
M2590.001953,1344.600098 
	C2592.326172,1346.626465 2594.559570,1347.828125 2597.818359,1349.581543 
	C2590.416016,1354.765137 2585.717529,1352.948486 2580.837891,1352.898804 
	C2581.871582,1347.812134 2582.729004,1343.592773 2583.773926,1338.450195 
	C2577.973877,1338.450195 2573.502197,1338.450195 2567.424561,1338.450195 
	C2568.574951,1343.351074 2569.547119,1347.493408 2570.705322,1352.427734 
	C2566.247070,1352.427734 2561.667236,1352.427734 2554.307617,1352.427734 
	C2562.190186,1347.225830 2562.058350,1341.305420 2561.924561,1335.189087 
	C2561.796387,1329.336182 2562.867432,1323.288940 2555.189209,1319.823120 
	C2561.417725,1316.230591 2566.214355,1316.768311 2570.992432,1318.685669 
	C2569.785156,1323.044800 2568.720947,1326.887939 2567.405762,1331.637207 
	C2573.316406,1331.637207 2577.825684,1331.637207 2583.775879,1331.637207 
	C2582.643555,1326.875122 2581.719482,1322.989502 2580.591064,1318.244873 
	C2585.381592,1318.244873 2589.958496,1318.244873 2596.878906,1318.244873 
	C2586.812744,1326.108643 2590.616455,1335.363647 2590.001953,1344.600098 
z"/>
<path fill="#D56A11" opacity="1.000000" stroke="none" 
	d="
M2229.537598,1346.301270 
	C2230.663086,1348.287598 2231.503662,1349.558838 2233.484619,1352.554810 
	C2227.319336,1352.847656 2222.749512,1353.064697 2216.581543,1353.357666 
	C2224.273438,1341.210327 2225.566650,1330.304932 2217.020508,1318.523804 
	C2225.199951,1316.478271 2232.955811,1316.596680 2240.480713,1318.554321 
	C2245.951904,1319.977417 2248.364502,1326.381592 2246.284424,1332.543823 
	C2245.364746,1335.267578 2243.426270,1337.647339 2241.947266,1340.180908 
	C2241.718262,1346.049683 2246.938477,1347.150269 2250.729004,1349.390259 
	C2246.440918,1354.527954 2242.585449,1354.628906 2239.199707,1349.943115 
	C2236.983154,1346.875488 2235.002441,1343.637817 2231.846924,1338.856567 
	C2230.479492,1342.403564 2229.865967,1343.994995 2229.537598,1346.301270 
M2231.444580,1322.725342 
	C2226.307129,1325.767090 2228.763428,1329.773682 2229.613281,1333.695190 
	C2233.595459,1334.531250 2237.280518,1335.435181 2239.595947,1331.540405 
	C2241.869385,1327.716064 2239.569824,1324.754883 2231.444580,1322.725342 
z"/>
<path fill="#D56A11" opacity="1.000000" stroke="none" 
	d="
M2184.166260,1353.383179 
	C2179.961670,1353.289551 2176.636475,1353.247192 2173.320068,1353.051880 
	C2172.785156,1353.020264 2172.290283,1352.307129 2171.379639,1351.601074 
	C2178.262939,1340.957031 2179.347900,1330.087646 2170.438232,1318.092651 
	C2179.608887,1316.822998 2188.183838,1316.507080 2196.425781,1318.036133 
	C2200.391846,1318.771851 2201.162354,1323.677856 2199.783691,1328.763916 
	C2194.637451,1326.415771 2190.994141,1319.858765 2185.003418,1323.863403 
	C2183.462402,1324.893799 2183.385254,1328.113892 2182.618164,1330.380127 
	C2187.024658,1331.860107 2190.191406,1332.923584 2193.358154,1333.987061 
	C2193.343750,1334.673218 2193.329102,1335.359375 2193.314697,1336.045532 
	C2190.354492,1336.901611 2187.394287,1337.757568 2183.018555,1339.022949 
	C2183.541992,1341.474609 2183.245850,1345.442505 2184.795654,1346.389282 
	C2190.543945,1349.901245 2195.343262,1346.705566 2199.338135,1342.193970 
	C2202.636963,1347.896118 2201.242920,1352.468628 2196.014160,1353.178101 
	C2192.415771,1353.666504 2188.707764,1353.343872 2184.166260,1353.383179 
z"/>
<path fill="#D56A11" opacity="1.000000" stroke="none" 
	d="
M2409.706787,1353.381592 
	C2403.740967,1353.162964 2398.657227,1352.944702 2392.703369,1352.689087 
	C2400.918213,1341.362915 2400.824463,1328.071411 2393.001221,1318.854126 
	C2395.508789,1318.281738 2397.554199,1317.497192 2399.630371,1317.405518 
	C2404.282715,1317.200317 2408.952881,1317.233032 2413.610596,1317.363037 
	C2421.552979,1317.584595 2422.212891,1318.484131 2421.782959,1328.442383 
	C2416.657715,1326.675659 2412.788574,1319.177734 2406.561768,1324.339111 
	C2405.276367,1325.404663 2405.578857,1328.385986 2405.120117,1330.627441 
	C2409.110107,1331.843994 2412.320557,1332.822998 2415.531006,1333.802002 
	C2415.541748,1334.449829 2415.552490,1335.097656 2415.563232,1335.745483 
	C2412.398682,1336.826050 2409.234131,1337.906494 2405.416260,1339.209961 
	C2405.584473,1341.618164 2405.756592,1344.082153 2405.916504,1346.369873 
	C2414.268311,1347.887573 2414.268311,1347.887573 2422.433105,1342.776245 
	C2424.567383,1350.004639 2423.138916,1352.645508 2416.578613,1353.322632 
	C2414.601074,1353.526733 2412.586426,1353.372314 2409.706787,1353.381592 
z"/>
<path fill="#D56A11" opacity="1.000000" stroke="none" 
	d="
M1852.454834,1317.347412 
	C1859.710815,1319.850464 1859.710815,1319.850464 1859.371704,1328.521362 
	C1854.282837,1326.634155 1850.428223,1319.126343 1844.170654,1324.438721 
	C1842.891724,1325.524536 1843.155151,1328.426758 1842.710327,1330.479004 
	C1846.747314,1331.802368 1849.941895,1332.849609 1853.136475,1333.896729 
	C1853.129150,1334.541504 1853.121826,1335.186157 1853.114502,1335.830811 
	C1849.935547,1336.913696 1846.756470,1337.996582 1842.252563,1339.530762 
	C1843.317749,1342.147339 1843.660400,1345.871216 1845.388550,1346.697510 
	C1850.698364,1349.236694 1855.645386,1347.682617 1858.651123,1341.600098 
	C1862.033447,1348.168701 1861.099731,1352.713013 1856.509033,1352.985718 
	C1848.122559,1353.483643 1839.559937,1354.586182 1829.387939,1351.574097 
	C1836.807373,1347.377686 1836.378906,1341.511963 1836.150757,1335.717651 
	C1835.926025,1330.015869 1837.875000,1323.612061 1829.354492,1320.084839 
	C1837.518066,1315.555298 1844.798096,1318.088501 1852.454834,1317.347412 
z"/>
<path fill="#D56A11" opacity="1.000000" stroke="none" 
	d="
M2083.968506,1345.313354 
	C2080.280029,1354.107544 2070.932861,1356.760864 2062.506836,1352.215942 
	C2054.343750,1347.813110 2051.008545,1336.333984 2055.122314,1326.800537 
	C2058.782959,1318.316895 2068.631348,1314.231079 2077.683838,1317.440674 
	C2083.087158,1319.356445 2083.932129,1321.436890 2081.728027,1327.904297 
	C2080.862305,1327.523926 2079.792725,1327.367065 2079.213379,1326.750122 
	C2074.528320,1321.762573 2070.998291,1320.730103 2066.535889,1323.209106 
	C2061.444580,1326.037720 2058.900879,1333.172607 2060.592529,1339.879395 
	C2062.019775,1345.537964 2065.775635,1348.994385 2071.106934,1348.547119 
	C2073.374512,1348.356934 2076.571289,1346.982300 2077.451172,1345.206909 
	C2079.008545,1342.064087 2076.336670,1340.725342 2073.336182,1340.132690 
	C2072.310303,1339.930054 2071.496826,1338.653564 2070.218506,1337.550171 
	C2074.426270,1333.466187 2078.551758,1335.157959 2083.318115,1335.637329 
	C2083.553467,1338.770264 2083.768311,1341.634399 2083.968506,1345.313354 
z"/>
<path fill="#D56A11" opacity="1.000000" stroke="none" 
	d="
M2137.347168,1353.989380 
	C2129.063721,1351.354004 2129.063721,1351.354004 2129.554199,1343.442871 
	C2131.120117,1344.238647 2132.402832,1344.864746 2133.661621,1345.536255 
	C2135.602295,1346.571777 2137.421631,1348.198242 2139.477783,1348.581543 
	C2144.577393,1349.532349 2148.830322,1347.393555 2149.160645,1343.959351 
	C2149.646973,1338.902710 2145.775146,1338.246460 2142.099121,1337.411133 
	C2139.516357,1336.824219 2136.862793,1336.267090 2134.471924,1335.185669 
	C2130.854736,1333.549683 2128.857910,1330.533813 2128.944824,1326.451416 
	C2129.031738,1322.370972 2131.057617,1318.797852 2134.846191,1318.099854 
	C2139.917725,1317.165894 2145.373291,1316.933350 2150.440430,1317.763550 
	C2155.114502,1318.529175 2154.690186,1322.715820 2153.712402,1327.640015 
	C2151.559326,1326.209961 2150.158447,1325.230835 2148.708496,1324.330688 
	C2147.357422,1323.491943 2146.010742,1322.206055 2144.562012,1322.050781 
	C2140.948730,1321.663330 2136.499023,1321.193848 2135.518066,1325.864136 
	C2134.556885,1330.441040 2138.822510,1330.821045 2142.017578,1331.596313 
	C2144.277344,1332.144653 2146.606445,1332.453735 2148.818115,1333.145630 
	C2153.065186,1334.473755 2155.490479,1337.473633 2155.768311,1341.923462 
	C2156.065186,1346.677490 2154.274902,1350.791382 2149.738281,1352.385742 
	C2146.104492,1353.662842 2141.991211,1353.576416 2137.347168,1353.989380 
z"/>
<path fill="#D56A11" opacity="1.000000" stroke="none" 
	d="
M2467.845215,1348.007446 
	C2468.048340,1346.229736 2468.342529,1345.056152 2468.659180,1343.792114 
	C2472.899414,1345.610962 2476.481201,1347.835938 2480.352783,1348.607544 
	C2483.959961,1349.326172 2488.147949,1348.400635 2488.653320,1343.610352 
	C2489.110352,1339.279053 2485.580566,1338.287720 2482.147461,1337.598511 
	C2479.864014,1337.140137 2477.488525,1336.846558 2475.358154,1335.978516 
	C2471.025391,1334.213257 2468.144775,1331.071899 2468.363037,1326.096191 
	C2468.584473,1321.054199 2471.699219,1318.012085 2476.400146,1317.283203 
	C2480.264648,1316.684082 2484.386719,1316.578613 2488.222168,1317.245605 
	C2493.587402,1318.178345 2493.860840,1319.376831 2492.259033,1326.486816 
	C2488.611328,1324.936035 2485.077393,1322.840210 2481.267334,1322.004883 
	C2478.321045,1321.359131 2474.641602,1322.722900 2475.010498,1326.482422 
	C2475.185059,1328.260498 2478.150879,1330.250610 2480.274170,1331.228638 
	C2482.936035,1332.454590 2486.192627,1332.357910 2488.907471,1333.506226 
	C2495.697998,1336.379028 2497.360107,1344.665527 2492.466553,1350.048462 
	C2486.798584,1356.283813 2474.113525,1355.540649 2467.845215,1348.007446 
z"/>
<path fill="#D56A11" opacity="1.000000" stroke="none" 
	d="
M2659.170898,1339.034668 
	C2659.322021,1334.963501 2659.115234,1331.552734 2659.925293,1328.403320 
	C2661.746826,1321.319458 2667.078125,1317.157959 2674.237549,1316.536621 
	C2681.377686,1315.916992 2687.349365,1319.175903 2690.662598,1325.500366 
	C2695.494629,1334.723633 2692.413818,1347.368774 2684.267334,1352.046631 
	C2675.289551,1357.202026 2660.894287,1353.189087 2659.170898,1339.034668 
M2670.292480,1347.213135 
	C2679.546387,1349.349243 2683.923340,1347.996338 2685.385010,1341.456543 
	C2686.284424,1337.432129 2686.115479,1332.874756 2685.222900,1328.821777 
	C2684.207520,1324.211426 2680.457275,1321.914795 2675.562500,1322.001465 
	C2670.625244,1322.088745 2667.332520,1324.600342 2666.264893,1329.295776 
	C2664.929199,1335.171631 2664.527100,1341.099365 2670.292480,1347.213135 
z"/>
<path fill="#D56A11" opacity="1.000000" stroke="none" 
	d="
M1903.788818,1320.934326 
	C1903.723999,1323.339722 1903.471191,1325.104858 1903.071045,1327.898071 
	C1898.470947,1325.024902 1895.764893,1319.805786 1890.538452,1322.008911 
	C1888.428589,1322.898438 1886.855591,1325.061401 1885.038330,1326.644775 
	C1886.595947,1328.142212 1887.910889,1330.204834 1889.768921,1331.002686 
	C1892.468018,1332.161621 1895.599854,1332.263062 1898.473022,1333.077393 
	C1902.766602,1334.294067 1905.269165,1337.299927 1905.591064,1341.720947 
	C1905.934692,1346.440063 1904.012207,1350.207031 1899.675049,1352.370850 
	C1893.941162,1355.231445 1887.975342,1354.858765 1882.204468,1352.694946 
	C1877.920776,1351.088501 1877.628906,1347.759155 1879.159058,1344.006104 
	C1883.678467,1345.715942 1887.619873,1347.821045 1891.807739,1348.597290 
	C1895.161987,1349.218994 1898.685913,1347.655151 1899.070801,1343.495361 
	C1899.411743,1339.809937 1896.644043,1338.436646 1893.451050,1337.723999 
	C1890.536499,1337.073608 1887.530029,1336.561890 1884.800171,1335.423096 
	C1880.781616,1333.746582 1878.478027,1330.528931 1878.774414,1326.006714 
	C1879.039307,1321.963135 1881.284058,1318.896851 1885.065430,1317.796753 
	C1891.490967,1315.927856 1898.066284,1314.750366 1903.788818,1320.934326 
z"/>
<path fill="#D56A11" opacity="1.000000" stroke="none" 
	d="
M2281.288086,1340.116333 
	C2286.555664,1336.827637 2289.602051,1328.303955 2288.243408,1322.483276 
	C2287.963135,1321.283691 2287.650391,1320.091675 2287.238281,1318.436279 
	C2292.445068,1318.436279 2296.983154,1318.436279 2301.521240,1318.436279 
	C2294.388428,1323.985840 2293.835449,1331.988159 2291.092773,1338.796143 
	C2290.222656,1340.955933 2289.639404,1343.231567 2288.762451,1345.388184 
	C2287.450684,1348.615234 2287.422119,1353.204834 2282.389893,1353.081299 
	C2277.968750,1352.972778 2277.888428,1348.755859 2276.659180,1345.857422 
	C2274.839844,1341.568115 2273.613281,1337.003296 2271.540771,1332.852295 
	C2269.311523,1328.387085 2266.396729,1324.264038 2263.168945,1318.992065 
	C2266.556885,1315.098755 2271.861084,1318.025635 2277.755127,1317.638672 
	C2274.391357,1325.964722 2278.210693,1332.618408 2281.288086,1340.116333 
z"/>
<path fill="#D56A11" opacity="1.000000" stroke="none" 
	d="
M1946.397949,1325.857056 
	C1943.833618,1322.500854 1940.666016,1322.348145 1940.263062,1325.722412 
	C1939.484619,1332.245239 1939.793945,1338.965088 1940.408691,1345.532593 
	C1940.537720,1346.911011 1943.930542,1347.983887 1946.632568,1349.719849 
	C1939.485474,1355.092896 1933.996338,1353.358154 1927.014648,1352.065186 
	C1935.944458,1343.130493 1933.730713,1333.588867 1931.913574,1322.227417 
	C1928.068481,1325.060303 1925.678711,1326.820923 1923.102173,1328.719116 
	C1919.099609,1325.743774 1920.690552,1322.185913 1921.024658,1318.060059 
	C1931.149902,1318.060059 1940.943726,1318.060059 1951.402832,1318.060059 
	C1952.493042,1321.289062 1953.756226,1324.676758 1950.790894,1327.760864 
	C1950.338135,1328.231689 1948.103394,1326.989258 1946.397949,1325.857056 
z"/>
<path fill="#D56A11" opacity="1.000000" stroke="none" 
	d="
M2610.732422,1326.966797 
	C2617.989746,1316.111450 2627.952148,1313.463379 2636.266357,1319.562622 
	C2644.200195,1325.382812 2645.694336,1340.550415 2638.990234,1348.406250 
	C2634.736816,1353.390503 2629.137939,1355.071045 2622.817627,1353.872437 
	C2615.915527,1352.563477 2611.365479,1348.119507 2610.132812,1341.408569 
	C2609.322021,1336.994263 2610.273926,1332.255981 2610.732422,1326.966797 
M2635.175537,1343.468140 
	C2635.390137,1338.603882 2636.542236,1333.547607 2635.594727,1328.921387 
	C2634.242676,1322.320312 2625.937256,1319.792358 2620.487305,1323.537720 
	C2615.460205,1326.992920 2614.041992,1338.845581 2617.979492,1344.502930 
	C2621.585938,1349.685059 2626.917480,1349.813599 2635.175537,1343.468140 
z"/>
<path fill="#D56A11" opacity="1.000000" stroke="none" 
	d="
M1815.502930,1323.292480 
	C1815.267090,1328.015137 1813.858643,1329.864502 1810.030518,1326.856934 
	C1808.628418,1325.755371 1807.397339,1324.436279 1805.984619,1323.119873 
	C1800.700928,1331.628540 1801.526001,1343.075317 1807.880981,1350.918213 
	C1802.563477,1355.035889 1797.139038,1353.451416 1789.945435,1351.944580 
	C1798.457764,1345.149780 1796.251831,1336.786987 1796.224854,1328.939575 
	C1796.218872,1327.199951 1795.478394,1324.696899 1794.215454,1323.886230 
	C1791.547852,1322.173462 1790.314209,1324.527954 1789.110962,1326.699707 
	C1788.594849,1327.631226 1787.123291,1328.033569 1785.838623,1328.829590 
	C1782.433594,1325.395386 1783.592285,1321.947510 1784.387329,1317.490479 
	C1793.677002,1317.490479 1802.878540,1317.302002 1812.052856,1317.715820 
	C1813.274536,1317.770996 1814.358398,1320.881348 1815.502930,1323.292480 
z"/>
<path fill="#D56A11" opacity="1.000000" stroke="none" 
	d="
M2518.279297,1329.331421 
	C2517.885498,1332.766846 2517.446533,1335.423218 2517.638428,1338.033081 
	C2517.975830,1342.624146 2519.946289,1346.461426 2524.603027,1347.967407 
	C2528.958984,1349.376343 2533.124512,1349.319824 2535.915527,1344.666992 
	C2536.310547,1344.008301 2537.536865,1343.848267 2538.942139,1343.195679 
	C2541.617920,1347.552246 2540.855225,1350.657837 2536.481689,1352.822144 
	C2525.987061,1358.015747 2513.345947,1351.554199 2511.201416,1339.962158 
	C2508.281982,1324.179077 2519.555176,1313.034790 2534.300537,1317.127808 
	C2539.931641,1318.690796 2540.502686,1319.853271 2539.127441,1327.885132 
	C2534.478516,1326.246460 2531.640869,1319.372314 2525.771240,1322.369141 
	C2523.021484,1323.773071 2520.915771,1326.437988 2518.279297,1329.331421 
z"/>
<path fill="#D56A11" opacity="1.000000" stroke="none" 
	d="
M2348.910645,1343.086670 
	C2348.396729,1338.783691 2347.552246,1335.082031 2348.026611,1331.558105 
	C2349.642334,1319.557983 2361.539307,1313.000854 2372.765137,1317.589722 
	C2377.343994,1319.461426 2377.842041,1321.173218 2375.492432,1328.099609 
	C2371.516846,1326.346436 2369.636719,1320.186401 2364.129639,1322.069946 
	C2361.706543,1322.898682 2358.962158,1323.822021 2357.279541,1325.579346 
	C2352.824951,1330.231445 2353.449463,1341.580444 2357.957031,1345.920898 
	C2362.309570,1350.111938 2367.543701,1349.413940 2375.220947,1343.618652 
	C2377.964844,1349.327637 2377.428955,1351.311646 2372.637207,1353.182739 
	C2363.568604,1356.724121 2355.349609,1353.425049 2348.910645,1343.086670 
z"/>
<path fill="#D56A11" opacity="1.000000" stroke="none" 
	d="
M2729.566895,1345.283936 
	C2732.494629,1341.933960 2735.136719,1341.696411 2735.152832,1345.751587 
	C2735.162354,1348.175903 2732.697998,1352.509399 2730.958252,1352.715820 
	C2722.943604,1353.666138 2714.730225,1354.271973 2705.854736,1352.189087 
	C2715.897217,1342.307617 2715.343750,1326.125000 2706.005371,1319.361084 
	C2712.912109,1316.374146 2719.053711,1316.483398 2726.537842,1319.506836 
	C2715.034180,1326.798584 2719.889160,1336.704834 2719.449463,1347.265503 
	C2723.211670,1346.750366 2726.142090,1346.349121 2729.566895,1345.283936 
z"/>
<path fill="#FD7301" opacity="1.000000" stroke="none" 
	d="
M2561.518799,1098.711426 
	C2561.565918,1104.824097 2561.565918,1110.052002 2561.565918,1115.794434 
	C2554.010986,1115.794434 2547.490723,1115.794434 2540.138184,1115.794434 
	C2540.138184,1109.091675 2540.138184,1102.363892 2540.138184,1094.383545 
	C2546.234863,1094.383545 2552.375244,1094.222778 2558.490723,1094.538208 
	C2559.538086,1094.592163 2560.480713,1096.678955 2561.518799,1098.711426 
z"/>
<path fill="#D56A11" opacity="1.000000" stroke="none" 
	d="
M1979.175171,1317.346313 
	C1981.568115,1317.915161 1983.236328,1318.477783 1985.300659,1319.173950 
	C1977.489258,1326.593384 1977.024414,1341.721558 1984.447876,1351.343140 
	C1977.462646,1354.080933 1975.382202,1354.097778 1967.058838,1351.123535 
	C1972.572510,1347.203369 1973.944580,1341.946899 1973.336060,1335.853638 
	C1972.766846,1330.152344 1975.406128,1323.472168 1966.924805,1320.891235 
	C1970.545654,1315.671265 1974.905518,1318.036011 1979.175171,1317.346313 
z"/>
<path fill="#D56A11" opacity="1.000000" stroke="none" 
	d="
M2322.748047,1317.347290 
	C2326.675537,1317.519897 2329.835205,1317.696045 2334.250977,1317.942139 
	C2326.621826,1329.464478 2325.406738,1340.027466 2333.048340,1350.666138 
	C2327.795654,1354.274414 2324.292480,1354.427612 2316.826904,1351.197388 
	C2324.293213,1341.609253 2324.271973,1327.504272 2315.863525,1319.469971 
	C2318.263672,1318.638428 2320.121826,1317.994629 2322.748047,1317.347290 
z"/>
<path fill="#243038" opacity="1.000000" stroke="none" 
	d="
M1473.469116,1210.532227 
	C1450.866699,1185.337891 1447.602417,1156.990845 1458.847046,1127.074097 
	C1469.909302,1097.641968 1501.009888,1080.757324 1534.017090,1084.339478 
	C1565.763672,1087.785034 1590.658081,1110.813965 1596.207642,1141.820923 
	C1601.050049,1168.875977 1594.705688,1192.675537 1574.945312,1213.075684 
	C1580.282715,1220.378418 1585.507812,1227.527466 1591.079834,1235.151001 
	C1583.527344,1240.729248 1576.605713,1245.841553 1568.936890,1251.505615 
	C1562.901611,1243.563965 1557.128418,1235.967163 1550.874512,1227.737915 
	C1522.684692,1234.949829 1496.286377,1232.035889 1473.469116,1210.532227 
M1487.360718,1139.006470 
	C1486.292114,1146.838867 1484.090820,1154.713379 1484.380493,1162.495239 
	C1485.077271,1181.213623 1497.000000,1195.928589 1514.011597,1200.847412 
	C1519.316040,1202.381226 1524.625854,1202.822998 1531.225708,1201.371338 
	C1525.248779,1193.233887 1520.182129,1186.335693 1514.627563,1178.773193 
	C1522.365845,1173.437134 1529.634399,1168.424927 1537.251465,1163.172241 
	C1543.904785,1171.654541 1550.078979,1179.526001 1556.480347,1187.687012 
	C1573.227661,1163.654541 1568.191528,1131.883667 1546.576904,1118.709473 
	C1527.929688,1107.343872 1498.722900,1112.397339 1487.360718,1139.006470 
z"/>
<path fill="#253139" opacity="1.000000" stroke="none" 
	d="
M1430.013550,1213.849609 
	C1419.279663,1225.773193 1405.854492,1230.138550 1391.160278,1231.075073 
	C1366.949097,1232.618164 1345.628174,1226.349854 1329.560303,1206.921387 
	C1328.928589,1206.157471 1328.373413,1205.326538 1327.826416,1204.497803 
	C1327.650269,1204.230591 1327.615479,1203.870117 1327.223633,1202.617432 
	C1332.884644,1196.098022 1338.884766,1189.188232 1345.218872,1181.893677 
	C1349.085693,1186.021118 1352.267090,1189.850098 1355.889526,1193.202515 
	C1366.898682,1203.391235 1379.904785,1206.999023 1394.645630,1204.252075 
	C1396.266968,1203.949951 1397.897339,1203.489136 1399.408203,1202.835327 
	C1410.685547,1197.955322 1412.394775,1186.201050 1402.211792,1179.417236 
	C1396.830811,1175.832520 1390.169800,1174.037720 1383.923218,1171.915649 
	C1375.439575,1169.033325 1366.490112,1167.335693 1358.293823,1163.834473 
	C1343.276855,1157.419434 1334.700073,1145.845581 1333.938232,1129.120728 
	C1333.155884,1111.944458 1341.085693,1099.426025 1355.770142,1091.659424 
	C1376.990234,1080.435913 1398.715820,1081.363770 1420.057129,1091.729492 
	C1427.370483,1095.281738 1432.900757,1101.080322 1436.932861,1107.745361 
	C1430.897705,1114.326782 1425.138794,1120.606934 1419.097290,1127.195312 
	C1416.007935,1124.293335 1413.501343,1121.657593 1410.710571,1119.367920 
	C1400.504395,1110.994141 1389.025146,1108.120850 1376.145508,1111.773682 
	C1369.843750,1113.560913 1365.269165,1117.295044 1364.662476,1124.057129 
	C1364.084106,1130.503052 1367.992188,1134.965698 1373.526855,1137.245483 
	C1379.947754,1139.890137 1386.770386,1141.558960 1393.416748,1143.657349 
	C1400.065308,1145.756226 1406.977173,1147.263062 1413.313110,1150.069336 
	C1440.963135,1162.315430 1447.878296,1188.271362 1430.013550,1213.849609 
z"/>
<path fill="#243038" opacity="1.000000" stroke="none" 
	d="
M1599.811768,962.963806 
	C1619.746094,962.027588 1639.686523,962.027588 1660.770020,962.027588 
	C1662.295166,982.698303 1660.866699,1002.550781 1661.808105,1023.266357 
	C1641.764648,1024.203857 1621.547485,1024.203857 1600.144409,1024.203857 
	C1600.032227,1003.488037 1599.925049,983.694031 1599.811768,962.963806 
z"/>
<path fill="#253139" opacity="1.000000" stroke="none" 
	d="
M2172.235840,1158.143433 
	C2172.656006,1154.323853 2172.890137,1151.329834 2173.519531,1148.421509 
	C2177.768066,1128.791870 2192.432617,1116.368164 2211.254883,1116.346191 
	C2230.126221,1116.323975 2246.020996,1129.641846 2249.466064,1149.304321 
	C2252.022949,1163.898804 2249.826172,1177.660522 2238.724609,1189.640747 
	C2232.756348,1181.950073 2227.083252,1174.640015 2220.807617,1166.553589 
	C2214.949951,1170.426147 2209.275635,1174.177612 2202.732666,1178.503296 
	C2208.191406,1185.852051 2213.233154,1192.639038 2218.399414,1199.593872 
	C2205.583008,1203.976929 2190.779053,1199.038086 2181.816895,1187.781372 
	C2175.127197,1179.379150 2172.379883,1169.615112 2172.235840,1158.143433 
z"/>
<path fill="#243038" opacity="1.000000" stroke="none" 
	d="
M1932.790527,1203.986084 
	C1909.259644,1200.767456 1904.494385,1167.135376 1918.623535,1152.474854 
	C1930.307007,1140.351929 1951.321289,1143.490112 1959.123657,1158.747314 
	C1963.733521,1167.761353 1963.808594,1177.356934 1960.597412,1186.789062 
	C1956.480469,1198.881226 1948.248657,1203.932983 1932.790527,1203.986084 
z"/>
<path fill="#243038" opacity="1.000000" stroke="none" 
	d="
M2408.173828,1180.917480 
	C2408.834473,1173.559937 2408.465332,1166.640625 2410.606201,1160.612549 
	C2414.118164,1150.723511 2422.053223,1145.426758 2432.812744,1145.194702 
	C2443.420898,1144.965942 2451.412598,1149.485962 2456.204102,1159.029907 
	C2461.111328,1168.804688 2461.200195,1178.906982 2456.847412,1188.835083 
	C2452.437012,1198.893799 2444.594238,1204.191406 2433.416260,1204.149902 
	C2422.160156,1204.108154 2414.709961,1198.426636 2410.298340,1188.403320 
	C2409.371826,1186.297974 2408.934082,1183.977295 2408.173828,1180.917480 
z"/>
<path fill="#253139" opacity="1.000000" stroke="none" 
	d="
M2232.218506,1322.678223 
	C2239.569824,1324.754883 2241.869385,1327.716064 2239.595947,1331.540405 
	C2237.280518,1335.435181 2233.595459,1334.531250 2229.613281,1333.695190 
	C2228.763428,1329.773682 2226.307129,1325.767090 2232.218506,1322.678223 
z"/>
<path fill="#1F2C34" opacity="1.000000" stroke="none" 
	d="
M2669.631592,1346.676636 
	C2664.527100,1341.099365 2664.929199,1335.171631 2666.264893,1329.295776 
	C2667.332520,1324.600342 2670.625244,1322.088745 2675.562500,1322.001465 
	C2680.457275,1321.914795 2684.207520,1324.211426 2685.222900,1328.821777 
	C2686.115479,1332.874756 2686.284424,1337.432129 2685.385010,1341.456543 
	C2683.923340,1347.996338 2679.546387,1349.349243 2669.631592,1346.676636 
z"/>
<path fill="#243038" opacity="1.000000" stroke="none" 
	d="
M2634.700439,1344.181396 
	C2626.917480,1349.813599 2621.585938,1349.685059 2617.979492,1344.502930 
	C2614.041992,1338.845581 2615.460205,1326.992920 2620.487305,1323.537720 
	C2625.937256,1319.792358 2634.242676,1322.320312 2635.594727,1328.921387 
	C2636.542236,1333.547607 2635.390137,1338.603882 2634.700439,1344.181396 
z"/>
<path fill="#F9F9FA" opacity="1.000000" stroke="none" 
	d="
M1487.632812,1138.272461 
	C1498.722900,1112.397339 1527.929688,1107.343872 1546.576904,1118.709473 
	C1568.191528,1131.883667 1573.227661,1163.654541 1556.480347,1187.687012 
	C1550.078979,1179.526001 1543.904785,1171.654541 1537.251465,1163.172241 
	C1529.634399,1168.424927 1522.365845,1173.437134 1514.627563,1178.773193 
	C1520.182129,1186.335693 1525.248779,1193.233887 1531.225708,1201.371338 
	C1524.625854,1202.822998 1519.316040,1202.381226 1514.011597,1200.847412 
	C1497.000000,1195.928589 1485.077271,1181.213623 1484.380493,1162.495239 
	C1484.090820,1154.713379 1486.292114,1146.838867 1487.632812,1138.272461 
z"/>
</svg>